<svg width="20" height="12" viewBox="0 0 20 12" fill="none" xmlns="http://www.w3.org/2000/svg">
<path d="M19.5139 0.439184C19.2327 0.157977 18.8512 3.8147e-06 18.4534 3.8147e-06C18.0557 3.8147e-06 17.6742 0.157977 17.3929 0.439184L9.96795 7.86418L2.54295 0.439184C2.26004 0.165947 1.88114 0.0147552 1.48784 0.0181732C1.09455 0.0215902 0.718328 0.179344 0.440216 0.457456C0.162104 0.735568 0.00435257 1.11179 0.000934601 1.50508C-0.00248337 1.89838 0.148708 2.27728 0.421946 2.56018L8.90745 11.0457C9.18874 11.3269 9.5702 11.4849 9.96795 11.4849C10.3657 11.4849 10.7472 11.3269 11.0284 11.0457L19.5139 2.56018C19.7952 2.27889 19.9531 1.89743 19.9531 1.49968C19.9531 1.10194 19.7952 0.720475 19.5139 0.439184Z" fill="#0C263F"/>
</svg>
